<svg width="491" height="647" viewBox="0 0 491 647" fill="none" xmlns="http://www.w3.org/2000/svg">
<path d="M0 10C0 4.47716 4.47715 0 10 0H481C486.523 0 491 4.47715 491 10V637C491 642.523 486.523 647 481 647H10C4.47716 647 0 642.523 0 637V10Z" fill="#0078FA"/>
<path d="M580 598.5C580 632.821 566.88 665.844 543.326 690.806C519.771 715.769 487.566 730.783 453.302 732.773C419.039 734.764 385.311 723.582 359.024 701.516C332.737 679.449 315.881 648.169 311.905 614.079C307.93 579.989 317.137 545.669 337.641 518.146C358.146 490.623 388.396 471.98 422.198 466.034C456 460.088 490.796 467.288 519.462 486.162C548.128 505.035 568.494 534.152 576.391 567.552L533.646 577.659C528.328 555.166 514.613 535.558 495.308 522.848C476.004 510.138 452.571 505.289 429.807 509.293C407.044 513.298 386.673 525.852 372.865 544.387C359.056 562.922 352.856 586.034 355.533 608.991C358.21 631.948 369.562 653.014 387.265 667.874C404.967 682.734 427.681 690.265 450.754 688.924C473.828 687.583 495.517 677.472 511.379 660.662C527.241 643.851 536.076 621.613 536.076 598.5H580Z" fill="white"/>
<circle cx="352" cy="507" r="69" fill="white" fill-opacity="0.5"/>
</svg>
