<svg width="284" height="123" viewBox="0 0 284 123" fill="none" xmlns="http://www.w3.org/2000/svg">
<path d="M85.8559 102.958C86.3432 102.958 86.5869 102.713 86.5869 102.225V101.127C86.5869 100.608 86.3432 100.364 85.8559 100.364H85.0943C84.607 100.364 84.3633 100.608 84.3633 101.127V102.225C84.3633 102.713 84.607 102.958 85.0943 102.958H85.8559ZM84.4242 121.053C84.4242 121.572 84.6679 121.816 85.1857 121.816H85.7645C86.2518 121.816 86.4955 121.572 86.4955 121.053V107.23C86.4955 106.711 86.2518 106.467 85.7645 106.467H85.1857C84.6679 106.467 84.4242 106.711 84.4242 107.23V121.053Z" fill="#323232"/>
<path d="M91.2065 121.053C91.2065 121.572 91.4502 121.816 91.968 121.816H92.5467C93.0341 121.816 93.2778 121.572 93.2778 121.053V114.309C93.2778 112.539 93.8261 111.044 94.9531 109.854C96.0802 108.664 97.4509 108.054 99.0958 108.054C101.776 108.054 102.446 109.701 102.446 112.6V121.053C102.446 121.572 102.69 121.816 103.178 121.816H103.756C104.274 121.816 104.518 121.572 104.518 121.053V112.051C104.518 108.115 103.056 106.101 99.37 106.101C97.7555 106.101 96.4153 106.528 95.3491 107.413C94.283 108.267 93.5824 109.152 93.1864 110.098H93.1255L93.2473 108.999V107.23C93.2473 106.711 93.0037 106.467 92.5163 106.467H91.968C91.4502 106.467 91.2065 106.711 91.2065 107.23V121.053Z" fill="#323232"/>
<path d="M115.544 114.065C115.544 116.354 116.336 118.307 117.89 119.863C119.474 121.419 121.393 122.182 123.647 122.182C125.87 122.182 127.789 121.419 129.343 119.863C130.927 118.307 131.719 116.354 131.719 114.065C131.719 111.807 130.927 109.915 129.343 108.389C127.789 106.863 125.87 106.101 123.616 106.101C121.393 106.101 119.474 106.863 117.89 108.389C116.336 109.915 115.544 111.807 115.544 114.065ZM117.676 114.065C117.676 112.326 118.255 110.891 119.413 109.732C120.57 108.542 121.971 107.962 123.647 107.962C125.292 107.962 126.693 108.542 127.85 109.732C129.008 110.891 129.587 112.326 129.587 114.065C129.587 115.835 129.008 117.33 127.85 118.52C126.693 119.71 125.292 120.321 123.647 120.321C121.971 120.321 120.57 119.71 119.413 118.52C118.255 117.33 117.676 115.835 117.676 114.065Z" fill="#323232"/>
<path d="M135.168 116.232C135.168 120.29 136.721 122.182 140.285 122.182C141.808 122.182 143.088 121.755 144.154 120.9C145.22 120.046 145.951 119.13 146.317 118.184H146.378L146.286 119.283V121.053C146.286 121.572 146.53 121.816 147.017 121.816H147.566C148.053 121.816 148.297 121.572 148.297 121.053V107.23C148.297 106.711 148.053 106.467 147.566 106.467H146.987C146.469 106.467 146.225 106.711 146.225 107.23V113.821C146.225 115.56 145.707 117.086 144.641 118.337C143.606 119.588 142.235 120.229 140.56 120.229C137.879 120.229 137.239 118.581 137.239 115.682V107.23C137.239 106.711 136.996 106.467 136.478 106.467H135.899C135.412 106.467 135.168 106.711 135.168 107.23V116.232Z" fill="#323232"/>
<path d="M153.02 121.053C153.02 121.572 153.264 121.816 153.782 121.816H154.361C154.848 121.816 155.092 121.572 155.092 121.053V115.316C155.092 113.516 155.518 111.929 156.341 110.525C157.193 109.122 158.381 108.42 159.874 108.42C160.453 108.42 160.727 108.176 160.727 107.657V107.108C160.727 106.619 160.453 106.375 159.935 106.375C157.62 106.375 155.762 108.176 155 110.525H154.939L155.061 109.305V107.23C155.061 106.711 154.818 106.467 154.33 106.467H153.782C153.264 106.467 153.02 106.711 153.02 107.23V121.053Z" fill="#323232"/>
<path d="M63.1849 39.2286C63.1849 41.1324 63.8006 42.5527 65.0318 43.4895C66.2631 44.4263 67.6791 44.8796 69.3105 44.8796C70.3879 44.8796 70.9111 44.4565 70.9111 43.6104V42.6736C70.9111 41.8275 70.5725 41.5253 69.6183 41.4346C67.9253 41.2533 67.0942 40.2863 67.0942 38.5638V32.5804H69.4028C70.2339 32.5804 70.6649 32.1574 70.6649 31.3112V30.7975C70.6649 29.9514 70.2339 29.5283 69.3721 29.5283H67.0942V26.3855C67.0942 25.5394 66.6633 25.1163 65.8014 25.1163H64.5701C63.7082 25.1163 63.2773 25.5394 63.2773 26.3855V29.5283H62.3846C61.5227 29.5283 61.0918 29.9514 61.0918 30.7975V31.3112C61.0918 32.1574 61.5227 32.5804 62.3538 32.5804H63.1849V39.2286Z" fill="#323232"/>
<path d="M73.5355 43.4593C73.5355 44.3054 73.9665 44.7285 74.8283 44.7285H76.152C77.0138 44.7285 77.4448 44.3054 77.4448 43.4593V37.5666C77.4448 36.0858 77.8449 34.8469 78.676 33.9101C79.5072 32.9431 80.6153 32.4596 81.9697 32.4596C83.8166 32.4596 84.4322 33.5474 84.4322 35.6023V43.4593C84.4322 44.3054 84.8632 44.7285 85.725 44.7285H87.0487C87.9105 44.7285 88.3415 44.3054 88.3415 43.4593V34.8166C88.3415 30.9184 86.5254 28.9541 82.8623 28.9541C80.369 28.9541 78.2759 30.4047 77.414 32.0667H77.3524L77.4448 30.7673V24.5422C77.4448 23.696 77.0138 23.2729 76.152 23.2729H74.8283C73.9665 23.2729 73.5355 23.696 73.5355 24.5422V43.4593Z" fill="#323232"/>
<path d="M90.7619 40.4676C90.7619 41.8275 91.2544 42.9456 92.2702 43.8219C93.286 44.6681 94.5173 45.0911 95.964 45.0911C98.0264 45.0911 99.4116 44.0335 100.15 43.2175C100.735 42.5225 100.797 42.3412 100.889 42.1901H100.951L100.889 42.8549V43.4593C100.889 44.3054 101.32 44.7285 102.151 44.7285H103.198C104.06 44.7285 104.491 44.3054 104.491 43.4593V35.0886C104.491 31.2206 102.059 28.9541 97.9956 28.9541C96.2411 28.9541 94.5481 29.3772 92.8551 30.2233C92.1471 30.6162 91.9624 31.1601 92.3626 31.9156L92.6704 32.4898C93.009 33.1848 93.5938 33.3359 94.3942 33.0035C95.5023 32.4293 96.5797 32.1271 97.657 32.1271C99.5963 32.1271 100.581 33.0337 100.581 34.8469V35.2095H99.9349C97.8725 35.2095 96.0564 35.4512 94.0556 36.1463C92.0855 36.8413 90.7619 38.3221 90.7619 40.4676ZM94.6404 40.1352C94.6404 38.4127 96.4257 37.5364 99.9656 37.5364H100.612V38.1105C100.612 39.1078 100.273 40.0445 99.5963 40.8907C98.9191 41.7368 98.0572 42.1599 97.0106 42.1599C95.5331 42.1599 94.6404 41.2231 94.6404 40.1352Z" fill="#323232"/>
<path d="M108.135 43.4593C108.135 44.3054 108.566 44.7285 109.397 44.7285H110.751C111.582 44.7285 112.013 44.3054 112.013 43.4593V37.5061C112.013 36.0858 112.413 34.8771 113.245 33.9101C114.076 32.9431 115.184 32.4596 116.538 32.4596C118.385 32.4596 119.001 33.5474 119.001 35.6023V43.4593C119.001 44.3054 119.432 44.7285 120.294 44.7285H121.617C122.479 44.7285 122.91 44.3054 122.91 43.4593V34.8166C122.91 30.9184 121.094 28.9541 117.431 28.9541C114.599 28.9541 112.721 30.5255 111.859 32.2178H111.798L111.859 31.5228V30.586C111.859 29.7398 111.428 29.3168 110.597 29.3168H109.397C108.566 29.3168 108.135 29.7398 108.135 30.586V43.4593Z" fill="#323232"/>
<path d="M169.092 120.495C169.092 121.37 169.52 121.807 170.345 121.807H171.689C172.514 121.807 172.942 121.37 172.942 120.495V114.344C172.942 112.876 173.339 111.627 174.165 110.628C174.99 109.629 176.09 109.129 177.434 109.129C179.268 109.129 179.879 110.253 179.879 112.377V120.495C179.879 121.37 180.307 121.807 181.163 121.807H182.477C183.332 121.807 183.76 121.37 183.76 120.495V111.565C183.76 107.537 181.957 105.507 178.321 105.507C175.509 105.507 173.645 107.131 172.789 108.879H172.728L172.789 108.161V107.193C172.789 106.319 172.362 105.882 171.537 105.882H170.345C169.52 105.882 169.092 106.319 169.092 107.193V120.495Z" fill="#323232"/>
<path d="M186.438 113.844C186.438 116.186 187.202 118.153 188.73 119.777C190.288 121.37 192.305 122.182 194.811 122.182C196.706 122.182 198.478 121.651 200.098 120.589C200.77 120.183 200.923 119.59 200.526 118.84L200.159 118.216C199.792 117.56 199.212 117.404 198.448 117.779C197.378 118.466 196.247 118.809 195.086 118.809C192.611 118.809 190.655 117.185 190.411 114.438H199.914C200.648 114.438 201.259 113.813 201.259 113.095C201.259 110.847 200.648 109.035 199.425 107.63C198.203 106.225 196.522 105.507 194.353 105.507C192 105.507 190.105 106.287 188.638 107.849C187.171 109.379 186.438 111.377 186.438 113.844ZM190.502 112.033C190.869 109.878 192.305 108.505 194.261 108.505C196.064 108.505 197.378 109.878 197.409 112.033H190.502Z" fill="#323232"/>
<path d="M204.833 116.124C204.833 118.091 205.445 119.559 206.667 120.527C207.889 121.495 209.295 121.963 210.915 121.963C211.984 121.963 212.504 121.526 212.504 120.652V119.684C212.504 118.809 212.168 118.497 211.22 118.403C209.539 118.216 208.714 117.217 208.714 115.437V109.254H211.006C211.831 109.254 212.259 108.817 212.259 107.942V107.412C212.259 106.537 211.831 106.1 210.976 106.1H208.714V102.853C208.714 101.978 208.287 101.541 207.431 101.541H206.209C205.353 101.541 204.925 101.978 204.925 102.853V106.1H204.039C203.183 106.1 202.755 106.537 202.755 107.412V107.942C202.755 108.817 203.183 109.254 204.008 109.254H204.833V116.124Z" fill="#323232"/>
<path d="M218.073 120.714C218.287 121.432 218.746 121.807 219.479 121.807H221.588C222.352 121.807 222.81 121.432 222.993 120.683L225.346 112.72C225.499 112.158 225.652 111.596 225.744 111.003H225.805L226.171 112.72L228.524 120.683C228.708 121.432 229.197 121.807 229.961 121.807H232.008C232.772 121.807 233.23 121.432 233.444 120.714L237.448 107.349C237.692 106.475 237.264 105.882 236.378 105.882H234.972C234.208 105.882 233.75 106.256 233.567 107.037L231.091 116.342C230.939 116.904 230.847 117.466 230.755 118.029H230.694L230.358 116.342L227.76 107.037C227.577 106.287 227.119 105.913 226.355 105.913H225.193C224.399 105.913 223.941 106.287 223.788 107.037L221.16 116.342C221.007 116.904 220.915 117.466 220.824 118.029H220.762L220.457 116.342L217.951 107.037C217.798 106.256 217.34 105.882 216.576 105.882H215.109C214.223 105.882 213.795 106.475 214.04 107.349L218.073 120.714Z" fill="#323232"/>
<path d="M255.925 113.844C255.925 111.44 255.1 109.473 253.419 107.88C251.769 106.287 249.752 105.507 247.338 105.507C244.924 105.507 242.907 106.287 241.256 107.88C239.606 109.441 238.781 111.44 238.781 113.844C238.781 116.249 239.606 118.247 241.256 119.84C242.907 121.401 244.924 122.182 247.338 122.182C249.752 122.182 251.769 121.401 253.419 119.84C255.1 118.247 255.925 116.249 255.925 113.844ZM242.723 113.844C242.723 112.408 243.182 111.221 244.068 110.284C244.954 109.348 246.054 108.879 247.338 108.879C248.621 108.879 249.721 109.348 250.607 110.284C251.524 111.221 251.983 112.408 251.983 113.844C251.983 115.312 251.524 116.498 250.638 117.435C249.752 118.341 248.652 118.809 247.338 118.809C246.024 118.809 244.924 118.341 244.037 117.435C243.151 116.498 242.723 115.312 242.723 113.844Z" fill="#323232"/>
<path d="M258.769 120.495C258.769 121.37 259.197 121.807 260.022 121.807H261.366C262.191 121.807 262.619 121.37 262.619 120.495V115.374C262.619 113.782 262.986 112.439 263.719 111.315C264.453 110.16 265.492 109.597 266.836 109.597C267.723 109.597 268.15 109.16 268.15 108.286V107.068C268.15 106.194 267.753 105.757 266.989 105.757C265.981 105.757 265.033 106.163 264.208 106.974C263.383 107.786 262.803 108.723 262.466 109.785H262.405L262.497 108.692V107.193C262.497 106.319 262.069 105.882 261.214 105.882H260.022C259.197 105.882 258.769 106.319 258.769 107.193V120.495Z" fill="#323232"/>
<path d="M270.228 120.495C270.228 121.37 270.656 121.807 271.512 121.807H272.826C273.682 121.807 274.109 121.37 274.109 120.495V114.843H276.126L279.763 120.901C280.099 121.495 280.588 121.807 281.26 121.807H282.91C283.919 121.807 284.285 121.151 283.766 120.246L279.182 113.064V113.001L283.063 107.443C283.644 106.6 283.277 105.882 282.269 105.882H280.802C280.129 105.882 279.61 106.163 279.274 106.756L276.035 111.502H274.109V100.948C274.109 100.073 273.682 99.6362 272.826 99.6362H271.512C270.656 99.6362 270.228 100.073 270.228 100.948V120.495Z" fill="#323232"/>
<path d="M132.456 41.0028C132.456 43.2604 133.559 44.3587 135.826 44.3587H158.255C160.522 44.3587 161.625 43.2604 161.625 41.0028V38.5622C161.625 36.3046 160.522 35.2063 158.255 35.2063H152.249V4.08808C152.249 1.83048 151.146 0.732195 148.879 0.732195H145.386C143.854 0.732195 142.444 1.28134 141.219 2.37963L133.62 9.4575C131.965 10.9829 131.965 12.5693 133.497 14.2168L135.091 15.9252C136.623 17.5726 138.155 17.6337 139.809 16.1083L140.361 15.6201C140.851 15.193 141.28 14.5829 141.709 13.6676H141.832L141.77 17.0235V35.2063H135.826C133.559 35.2063 132.456 36.3046 132.456 38.5622V41.0028Z" fill="#0078FA"/>
<path d="M163.483 31.9114C163.483 35.4504 164.954 38.5622 167.834 41.1859C170.776 43.8096 174.759 45.0909 179.846 45.0909C184.932 45.0909 188.915 43.8096 191.795 41.1859C194.676 38.5622 196.146 35.4504 196.146 31.9114C196.146 28.0064 194.247 24.8336 190.447 22.4539C193.45 19.098 194.982 15.6811 194.982 12.1422C194.982 8.42022 193.511 5.49145 190.631 3.29487C187.751 1.09829 184.135 0 179.784 0C175.066 0 171.45 1.22032 168.938 3.72199C166.425 6.16263 165.199 9.0914 165.199 12.4473C165.199 15.8032 166.731 18.6709 169.795 21.0506C165.567 24.2844 163.483 27.9454 163.483 31.9114ZM183.032 18.793C177.823 16.6574 175.678 15.4371 175.678 12.6914C175.678 10.3117 177.088 9.15242 179.907 9.15242C183.032 9.15242 184.625 10.6168 184.625 13.5456C184.625 15.3761 184.074 17.1455 183.032 18.793ZM174.208 30.6911C174.208 28.8606 175.066 27.0912 176.72 25.3217L177.885 25.8098C180.642 26.9691 182.542 27.9454 183.584 28.6776C184.625 29.4098 185.177 30.386 185.177 31.5453C185.177 34.23 182.971 35.9385 179.968 35.9385C176.536 35.9385 174.208 33.8029 174.208 30.6911Z" fill="#0078FA"/>
<path d="M201.923 41.0028C201.923 43.2604 203.026 44.3587 205.293 44.3587H209.154C211.421 44.3587 212.524 43.2604 212.524 41.0028V32.1555H215.833L221.226 41.9791C222.145 43.5655 223.432 44.3587 225.209 44.3587H229.805C232.563 44.3587 233.482 42.5892 232.073 40.3316L224.045 27.3352V27.2132L230.663 16.9625C232.134 14.7049 231.215 12.9354 228.457 12.9354H224.413C222.636 12.9354 221.287 13.6676 220.429 15.193L215.527 23.3082H212.524V4.08808C212.524 1.83048 211.421 0.732195 209.154 0.732195H205.293C203.026 0.732195 201.923 1.83048 201.923 4.08808V41.0028Z" fill="#0078FA"/>
<path d="M0 44.274C0 44.6493 0.184643 44.826 0.57701 44.826H1.01554C1.38482 44.826 1.56947 44.6493 1.56947 44.274V39.4605C1.56947 38.2681 1.93875 37.2083 2.70041 36.2588C3.46206 35.3093 4.40835 34.8236 5.53929 34.8236C6.57791 34.8236 7.2934 35.1769 7.59345 35.8834C7.89349 36.5679 7.98582 37.1641 7.98582 38.1356V44.274C7.98582 44.6493 8.17046 44.826 8.56283 44.826H9.00135C9.37064 44.826 9.55528 44.6493 9.55528 44.274V39.4605C9.55528 38.246 9.92457 37.1862 10.6631 36.2367C11.4017 35.2873 12.3249 34.8236 13.4559 34.8236C15.3946 34.8236 15.9485 36.038 15.9485 38.1356V44.274C15.9485 44.6493 16.1332 44.826 16.5256 44.826H16.941C17.3334 44.826 17.518 44.6493 17.518 44.274V37.7603C17.518 34.9119 16.4102 33.4546 13.6636 33.4546C12.7404 33.4546 11.8864 33.7416 11.0786 34.2936C10.2939 34.8457 9.73992 35.486 9.39372 36.2367H9.34756C9.02443 34.382 7.82425 33.4546 5.7701 33.4546C4.86996 33.4546 4.01599 33.7416 3.18509 34.3378C2.3542 34.9119 1.80027 35.5743 1.50023 36.3471H1.45406L1.54639 35.5522V34.2716C1.54639 33.8962 1.36174 33.7196 0.992457 33.7196H0.57701C0.184643 33.7196 0 33.8962 0 34.2716V44.274Z" fill="#323232"/>
<path d="M20.1088 39.2176C20.1088 40.8736 20.7089 42.2867 21.886 43.4128C23.0862 44.5389 24.5402 45.091 26.2482 45.091C27.933 45.091 29.3871 44.5389 30.5642 43.4128C31.7644 42.2867 32.3645 40.8736 32.3645 39.2176C32.3645 37.5836 31.7644 36.2146 30.5642 35.1106C29.3871 34.0066 27.933 33.4546 26.2251 33.4546C24.5402 33.4546 23.0862 34.0066 21.886 35.1106C20.7089 36.2146 20.1088 37.5836 20.1088 39.2176ZM21.7244 39.2176C21.7244 37.959 22.1629 36.9212 23.04 36.0822C23.9171 35.221 24.9788 34.8015 26.2482 34.8015C27.4945 34.8015 28.5562 35.221 29.4333 36.0822C30.3103 36.9212 30.7488 37.959 30.7488 39.2176C30.7488 40.4982 30.3103 41.5802 29.4333 42.4413C28.5562 43.3024 27.4945 43.744 26.2482 43.744C24.9788 43.744 23.9171 43.3024 23.04 42.4413C22.1629 41.5802 21.7244 40.4982 21.7244 39.2176Z" fill="#323232"/>
<path d="M35.1165 44.274C35.1165 44.6493 35.3011 44.826 35.6935 44.826H36.132C36.5013 44.826 36.6859 44.6493 36.6859 44.274V40.1229C36.6859 38.8201 37.009 37.6719 37.6322 36.6562C38.2785 35.6405 39.1786 35.1327 40.3095 35.1327C40.7481 35.1327 40.9558 34.9561 40.9558 34.5807V34.1832C40.9558 33.83 40.7481 33.6533 40.3557 33.6533C38.6016 33.6533 37.1937 34.9561 36.6167 36.6562H36.5705L36.6628 35.773V34.2716C36.6628 33.8962 36.4782 33.7196 36.1089 33.7196H35.6935C35.3011 33.7196 35.1165 33.8962 35.1165 34.2716V44.274Z" fill="#323232"/>
<path d="M41.7928 39.2838C41.7928 40.984 42.3698 42.3751 43.5238 43.457C44.6779 44.5389 46.1319 45.091 47.863 45.091C49.2709 45.091 50.5634 44.6714 51.7405 43.8545C52.0174 43.6557 52.0636 43.4128 51.902 43.1258L51.7174 42.8608C51.5327 42.5738 51.2789 42.5296 50.9557 42.7284C50.0556 43.4128 49.0401 43.744 47.9091 43.744C46.6628 43.744 45.6011 43.3466 44.7471 42.5517C43.8931 41.7568 43.4315 40.6749 43.4084 39.3059H51.7635C52.1098 39.3059 52.3636 39.0851 52.3636 38.7539C52.3636 35.5522 50.5634 33.4546 47.5168 33.4546C45.9011 33.4546 44.5394 33.9845 43.4315 35.0444C42.3467 36.1042 41.7928 37.5174 41.7928 39.2838ZM43.4777 38.1798C43.847 35.9938 45.4626 34.6911 47.4706 34.6911C49.2939 34.6911 50.6788 35.9497 50.7711 38.1798H43.4777Z" fill="#323232"/>
<path d="M21.0918 75.6283C21.0918 79.1498 22.2424 82.1153 24.5895 84.4784C26.9367 86.8416 30.0203 88 33.8402 88C36.9237 88 39.7311 87.0732 42.1703 85.2661C43.0908 84.6174 43.2749 83.737 42.6766 82.6713L42.2164 81.7909C41.6181 80.7252 40.7436 80.5399 39.5931 81.1886C37.8902 82.3933 36.1413 82.9957 34.3464 82.9957C32.1833 82.9957 30.3885 82.3006 29.0538 80.8642C27.7191 79.4278 27.0288 77.667 27.0288 75.5819C27.0288 73.4968 27.6731 71.7824 29.0078 70.3923C30.3424 68.9559 32.0453 68.2608 34.1623 68.2608C35.7731 68.2608 37.2919 68.7242 38.7186 69.6973C39.8692 70.2533 40.6976 70.0679 41.2959 69.1876L41.8942 68.2608C42.5846 67.1488 42.4925 66.2684 41.526 65.6197C39.2709 64.0443 36.7396 63.2566 33.8402 63.2566C30.0203 63.2566 26.9367 64.4613 24.5895 66.8708C22.2424 69.2339 21.0918 72.1531 21.0918 75.6283Z" fill="#323232"/>
<path d="M45.1744 80.9106C45.1744 82.9957 45.9108 84.7101 47.4296 86.0538C48.9483 87.3513 50.7892 88 52.9523 88C56.0359 88 58.1069 86.3782 59.2115 85.1271C60.0859 84.0614 60.1779 83.7834 60.316 83.5517H60.4081L60.316 84.5711V85.4978C60.316 86.7952 60.9603 87.4439 62.203 87.4439H63.7677C65.0564 87.4439 65.7007 86.7952 65.7007 85.4978V72.6628C65.7007 66.7318 62.0649 63.2566 55.9898 63.2566C53.3665 63.2566 50.8353 63.9053 48.304 65.2027C47.2455 65.805 46.9693 66.6391 47.5676 67.7975L48.0279 68.6779C48.5341 69.7436 49.4085 69.9753 50.6051 69.4656C52.262 68.5852 53.8728 68.1218 55.4836 68.1218C58.383 68.1218 59.8558 69.5119 59.8558 72.2921V72.8481H58.8893C55.8058 72.8481 53.0904 73.2188 50.0989 74.2845C47.1534 75.3502 45.1744 77.6207 45.1744 80.9106ZM50.9733 80.4009C50.9733 77.7597 53.6427 76.416 58.9353 76.416H59.9018V77.2964C59.9018 78.8254 59.3955 80.2619 58.383 81.5593C57.3705 82.8567 56.0819 83.5054 54.5171 83.5054C52.308 83.5054 50.9733 82.069 50.9733 80.4009Z" fill="#323232"/>
<path d="M71.1494 85.4978C71.1494 86.7952 71.7937 87.4439 73.0363 87.4439H75.0614C76.304 87.4439 76.9483 86.7952 76.9483 85.4978V76.3696C76.9483 74.1918 77.5466 72.3384 78.7892 70.8557C80.0318 69.3729 81.6887 68.6315 83.7137 68.6315C86.4751 68.6315 87.3955 70.2996 87.3955 73.4505V85.4978C87.3955 86.7952 88.0398 87.4439 89.3285 87.4439H91.3075C92.5961 87.4439 93.2405 86.7952 93.2405 85.4978V72.2457C93.2405 66.2684 90.5251 63.2566 85.0484 63.2566C80.8142 63.2566 78.0068 65.666 76.7182 68.2608H76.6261L76.7182 67.1951V65.7587C76.7182 64.4613 76.0739 63.8126 74.8312 63.8126H73.0363C71.7937 63.8126 71.1494 64.4613 71.1494 65.7587V85.4978Z" fill="#323232"/>
<path d="M97.3196 75.6283C97.3196 79.2888 98.2861 82.3006 100.173 84.5711C102.06 86.8416 104.591 88 107.767 88C110.988 88 113.059 86.5635 114.072 85.3588C114.946 84.3858 114.992 84.1541 115.131 83.9224H115.223L115.131 84.7564V85.6832C115.131 86.8416 115.775 87.4439 117.017 87.4439H118.72C119.963 87.4439 120.607 86.7952 120.607 85.4978V56.4915C120.607 55.1941 119.963 54.5454 118.72 54.5454H116.695C115.453 54.5454 114.808 55.1941 114.808 56.4915V65.2953C114.808 65.805 114.854 66.2221 114.9 66.6391H114.808L114.578 66.3147C114.118 65.3417 111.955 63.2566 107.951 63.2566C104.821 63.2566 102.244 64.415 100.265 66.6854C98.2861 68.9559 97.3196 71.9214 97.3196 75.6283ZM103.211 75.6283C103.211 71.1337 105.788 68.3072 109.101 68.3072C110.988 68.3072 112.415 69.0486 113.428 70.485C114.44 71.9214 114.946 73.5895 114.946 75.5819C114.946 80.5399 112.369 83.042 109.055 83.042C105.558 83.042 103.211 80.0765 103.211 75.6283Z" fill="#323232"/>
<path d="M130.343 59.7814C131.632 59.7814 132.276 59.1327 132.276 57.8816V56.4915C132.276 55.1941 131.632 54.5454 130.343 54.5454H128.318C127.075 54.5454 126.431 55.1941 126.431 56.4915V57.8816C126.431 59.1327 127.075 59.7814 128.318 59.7814H130.343ZM126.431 85.4978C126.431 86.7952 127.075 87.4439 128.318 87.4439H130.343C131.586 87.4439 132.23 86.7952 132.23 85.4978V65.7587C132.23 64.4613 131.586 63.8126 130.343 63.8126H128.318C127.075 63.8126 126.431 64.4613 126.431 65.7587V85.4978Z" fill="#323232"/>
<path d="M136.646 75.6283C136.646 79.2888 137.612 82.3006 139.499 84.5711C141.386 86.8416 143.918 88 147.093 88C150.315 88 152.386 86.5635 153.398 85.3588C154.273 84.3858 154.319 84.1541 154.457 83.9224H154.549L154.457 84.7564V85.6832C154.457 86.8416 155.101 87.4439 156.344 87.4439H158.047C159.289 87.4439 159.934 86.7952 159.934 85.4978V56.4915C159.934 55.1941 159.289 54.5454 158.047 54.5454H156.022C154.779 54.5454 154.135 55.1941 154.135 56.4915V65.2953C154.135 65.805 154.181 66.2221 154.227 66.6391H154.135L153.905 66.3147C153.444 65.3417 151.281 63.2566 147.277 63.2566C144.148 63.2566 141.57 64.415 139.591 66.6854C137.612 68.9559 136.646 71.9214 136.646 75.6283ZM142.537 75.6283C142.537 71.1337 145.114 68.3072 148.428 68.3072C150.315 68.3072 151.741 69.0486 152.754 70.485C153.766 71.9214 154.273 73.5895 154.273 75.5819C154.273 80.5399 151.695 83.042 148.382 83.042C144.884 83.042 142.537 80.0765 142.537 75.6283Z" fill="#323232"/>
<path d="M163.962 80.9106C163.962 82.9957 164.699 84.7101 166.218 86.0538C167.736 87.3513 169.577 88 171.74 88C174.824 88 176.895 86.3782 177.999 85.1271C178.874 84.0614 178.966 83.7834 179.104 83.5517H179.196L179.104 84.5711V85.4978C179.104 86.7952 179.748 87.4439 180.991 87.4439H182.556C183.844 87.4439 184.489 86.7952 184.489 85.4978V72.6628C184.489 66.7318 180.853 63.2566 174.778 63.2566C172.154 63.2566 169.623 63.9053 167.092 65.2027C166.033 65.805 165.757 66.6391 166.356 67.7975L166.816 68.6779C167.322 69.7436 168.196 69.9753 169.393 69.4656C171.05 68.5852 172.661 68.1218 174.272 68.1218C177.171 68.1218 178.644 69.5119 178.644 72.2921V72.8481H177.677C174.594 72.8481 171.878 73.2188 168.887 74.2845C165.941 75.3502 163.962 77.6207 163.962 80.9106ZM169.761 80.4009C169.761 77.7597 172.431 76.416 177.723 76.416H178.69V77.2964C178.69 78.8254 178.183 80.2619 177.171 81.5593C176.158 82.8567 174.87 83.5054 173.305 83.5054C171.096 83.5054 169.761 82.069 169.761 80.4009Z" fill="#323232"/>
<path d="M190.956 79.0108C190.956 81.9299 191.877 84.1077 193.718 85.5442C195.559 86.9806 197.676 87.6756 200.115 87.6756C201.726 87.6756 202.508 87.0269 202.508 85.7295V84.2931C202.508 82.9957 202.002 82.5323 200.575 82.3933C198.044 82.1153 196.801 80.6325 196.801 77.9914V68.8169H200.253C201.496 68.8169 202.14 68.1682 202.14 66.8708V66.0831C202.14 64.7857 201.496 64.1369 200.207 64.1369H196.801V59.318C196.801 58.0206 196.157 57.3719 194.868 57.3719H193.027C191.739 57.3719 191.094 58.0206 191.094 59.318V64.1369H189.76C188.471 64.1369 187.827 64.7857 187.827 66.0831V66.8708C187.827 68.1682 188.471 68.8169 189.714 68.8169H190.956V79.0108Z" fill="#323232"/>
<path d="M204.825 75.6283C204.825 79.1035 205.976 82.0226 208.277 84.4321C210.624 86.7952 213.662 88 217.436 88C220.289 88 222.959 87.2122 225.398 85.6368C226.41 85.0345 226.64 84.1541 226.042 83.042L225.49 82.1153C224.937 81.1422 224.063 80.9106 222.912 81.4666C221.302 82.486 219.599 82.9957 217.85 82.9957C214.122 82.9957 211.177 80.5862 210.808 76.5086H225.122C226.226 76.5086 227.147 75.5819 227.147 74.5162C227.147 71.18 226.226 68.4925 224.385 66.4074C222.544 64.3223 220.013 63.2566 216.745 63.2566C213.202 63.2566 210.348 64.415 208.139 66.7318C205.93 69.0022 204.825 71.9677 204.825 75.6283ZM210.946 72.9408C211.499 69.7436 213.662 67.7048 216.607 67.7048C219.323 67.7048 221.302 69.7436 221.348 72.9408H210.946Z" fill="#323232"/>
<path d="M231.974 85.5905C234.322 87.2122 236.945 88 239.798 88C242.468 88 244.631 87.3049 246.242 85.9612C247.898 84.5711 248.727 82.8103 248.727 80.7252C248.819 76.0453 244.447 74.3309 241.179 73.3578C238.924 72.6164 237.083 71.736 237.083 70.2996C237.083 68.7705 238.141 67.9828 240.259 67.9828C241.547 67.9828 243.02 68.3535 244.723 69.1412C245.919 69.6509 246.794 69.4192 247.3 68.3999L247.76 67.5658C248.313 66.3611 248.082 65.4807 247.07 64.971C244.999 63.8126 242.836 63.2566 240.535 63.2566C237.957 63.2566 235.794 63.9053 234.091 65.1563C232.389 66.4074 231.56 68.1218 231.56 70.346C231.56 75.1649 235.794 76.7403 239.108 77.806C241.363 78.5474 243.204 79.5205 243.204 80.8642C243.204 82.347 241.961 83.2737 239.936 83.2737C238.418 83.2737 236.669 82.7177 234.69 81.6519C233.585 81.0496 232.711 81.2349 232.066 82.1153L231.514 82.9493C230.732 84.1077 230.916 84.9881 231.974 85.5905Z" fill="#323232"/>
</svg>
