<svg width="343" height="168" viewBox="0 0 343 168" fill="none" xmlns="http://www.w3.org/2000/svg">
<path d="M108.784 159.902C108.784 164.811 111.568 167.664 116.25 167.664C117.052 167.664 117.432 167.329 117.432 166.657V166.112C117.432 165.399 117.136 165.189 116.293 165.063C113.213 164.895 111.652 163.049 111.652 159.524V148.951H115.955C116.672 148.951 117.01 148.615 117.01 147.944V147.608C117.01 146.895 116.672 146.559 115.955 146.559H111.652V141.608C111.652 140.895 111.315 140.559 110.64 140.559H109.881C109.164 140.559 108.826 140.895 108.826 141.608V146.559H107.012C106.337 146.559 106 146.895 106 147.608V147.944C106 148.615 106.337 148.951 107.012 148.951H108.784V159.902Z" fill="#323232"/>
<path d="M123.435 141.566C124.11 141.566 124.447 141.231 124.447 140.559V139.049C124.447 138.336 124.11 138 123.435 138H122.38C121.705 138 121.368 138.336 121.368 139.049V140.559C121.368 141.231 121.705 141.566 122.38 141.566H123.435ZM121.452 166.448C121.452 167.161 121.79 167.497 122.507 167.497H123.308C123.983 167.497 124.32 167.161 124.32 166.448V147.441C124.32 146.727 123.983 146.392 123.308 146.392H122.507C121.79 146.392 121.452 146.727 121.452 147.441V166.448Z" fill="#323232"/>
<path d="M130.844 166.448C130.844 167.161 131.182 167.497 131.899 167.497H132.7C133.375 167.497 133.713 167.161 133.713 166.448V157.301C133.713 155.035 134.388 153.021 135.78 151.217C137.172 149.413 138.901 148.49 140.968 148.49C142.866 148.49 144.174 149.161 144.722 150.503C145.271 151.804 145.439 152.937 145.439 154.783V166.448C145.439 167.161 145.777 167.497 146.494 167.497H147.296C147.97 167.497 148.308 167.161 148.308 166.448V157.301C148.308 154.993 148.983 152.979 150.333 151.175C151.683 149.371 153.37 148.49 155.437 148.49C158.98 148.49 159.993 150.797 159.993 154.783V166.448C159.993 167.161 160.33 167.497 161.047 167.497H161.806C162.523 167.497 162.861 167.161 162.861 166.448V154.07C162.861 148.657 160.836 145.888 155.816 145.888C154.129 145.888 152.568 146.434 151.092 147.483C149.658 148.531 148.645 149.748 148.013 151.175H147.928C147.338 147.65 145.144 145.888 141.39 145.888C139.745 145.888 138.184 146.434 136.666 147.566C135.147 148.657 134.135 149.916 133.586 151.385H133.502L133.671 149.874V147.441C133.671 146.727 133.333 146.392 132.658 146.392H131.899C131.182 146.392 130.844 146.727 130.844 147.441V166.448Z" fill="#323232"/>
<path d="M167.68 156.965C167.68 160.196 168.735 162.839 170.844 164.895C172.953 166.951 175.611 168 178.774 168C181.348 168 183.71 167.203 185.861 165.65C186.367 165.273 186.452 164.811 186.156 164.266L185.819 163.762C185.481 163.217 185.017 163.133 184.427 163.51C182.782 164.811 180.926 165.441 178.859 165.441C176.581 165.441 174.64 164.685 173.08 163.175C171.519 161.664 170.675 159.608 170.633 157.007H185.903C186.536 157.007 187 156.587 187 155.958C187 149.874 183.71 145.888 178.142 145.888C175.189 145.888 172.7 146.895 170.675 148.909C168.693 150.923 167.68 153.608 167.68 156.965ZM170.76 154.867C171.435 150.713 174.387 148.238 178.057 148.238C181.39 148.238 183.921 150.629 184.089 154.867H170.76Z" fill="#323232"/>
<path d="M119 50.288C119 53.637 119.878 56.3924 121.592 58.4696C123.306 60.5467 125.605 61.6065 128.489 61.6065C131.416 61.6065 133.297 60.2924 134.216 59.1902C135.011 58.3 135.052 58.088 135.178 57.8761H135.261L135.178 58.6391V59.487C135.178 60.5467 135.763 61.0978 136.892 61.0978H138.439C139.567 61.0978 140.152 60.5043 140.152 59.3174V32.7804C140.152 31.5935 139.567 31 138.439 31H136.599C135.471 31 134.885 31.5935 134.885 32.7804V40.8348C134.885 41.3011 134.927 41.6826 134.969 42.0641H134.885L134.676 41.7674C134.258 40.8772 132.293 38.9696 128.657 38.9696C125.814 38.9696 123.473 40.0293 121.675 42.1065C119.878 44.1837 119 46.8967 119 50.288ZM124.351 50.288C124.351 46.1761 126.692 43.5902 129.702 43.5902C131.416 43.5902 132.711 44.2685 133.631 45.5826C134.551 46.8967 135.011 48.4228 135.011 50.2456C135.011 54.7815 132.67 57.0707 129.66 57.0707C126.483 57.0707 124.351 54.3576 124.351 50.288Z" fill="#323232"/>
<path d="M143.812 55.1206C143.812 57.0283 144.481 58.5967 145.86 59.8261C147.24 61.013 148.912 61.6065 150.877 61.6065C153.677 61.6065 155.559 60.1228 156.562 58.9783C157.356 58.0033 157.44 57.7489 157.565 57.537H157.649L157.565 58.4696V59.3174C157.565 60.5043 158.15 61.0978 159.279 61.0978H160.7C161.871 61.0978 162.456 60.5043 162.456 59.3174V47.575C162.456 42.1489 159.154 38.9696 153.636 38.9696C151.253 38.9696 148.954 39.563 146.655 40.75C145.693 41.3011 145.442 42.0641 145.986 43.1239L146.404 43.9293C146.864 44.9043 147.658 45.1163 148.745 44.65C150.25 43.8446 151.713 43.4207 153.176 43.4207C155.809 43.4207 157.147 44.6924 157.147 47.2359V47.7446H156.269C153.468 47.7446 151.002 48.0837 148.285 49.0587C145.609 50.0337 143.812 52.1109 143.812 55.1206ZM149.079 54.6543C149.079 52.238 151.504 51.0087 156.311 51.0087H157.189V51.8141C157.189 53.213 156.729 54.5272 155.809 55.7141C154.89 56.9011 153.719 57.4946 152.298 57.4946C150.291 57.4946 149.079 56.1804 149.079 54.6543Z" fill="#323232"/>
<path d="M165.612 67.075C165.11 68.05 165.403 68.9826 166.406 69.3641C167.493 69.788 168.496 70 169.374 70C172.718 70 175.686 68.0924 177.066 64.3196L185.844 41.513C186.304 40.2837 185.719 39.4783 184.423 39.4783H182.333C181.288 39.4783 180.661 39.987 180.368 40.962L176.606 52.0261C176.397 52.7891 176.146 53.7217 175.895 54.8663H175.812L175.017 51.9413L171.004 40.9196C170.67 39.9446 170.001 39.4783 169.04 39.4783H166.782C165.444 39.4783 164.901 40.3261 165.444 41.5554L173.554 60.7587L172.76 62.6663C172.091 64.3196 170.837 65.5489 169.374 65.5489C168.914 65.5489 168.413 65.4217 167.869 65.1674C166.991 64.9554 166.364 65.2946 165.988 66.1424L165.612 67.075Z" fill="#323232"/>
<path d="M17.9843 56.8823C22.9926 60.3221 28.6688 62 35.0962 62C44.5286 62 51.7907 57.4696 54.8792 51.429C56.4652 48.4087 57.2164 45.1367 57.2164 41.5291C57.2164 37.2503 55.8809 33.5589 53.2932 30.3708C50.7056 27.1827 47.1997 25.0852 42.7757 24.1624L52.7924 12.5846C54.2114 10.9905 54.8792 9.06089 54.8792 6.87957V5.53722C54.8792 2.51692 53.3767 1.00677 50.2882 1.00677H21.824C18.7355 1.00677 17.233 2.51692 17.233 5.62111V8.977C17.233 12.0812 18.7355 13.5913 21.824 13.5913H31.5069C34.011 13.5913 35.9309 13.4235 37.183 13.1719V13.3397L36.5152 14.0108C35.597 14.7659 33.6771 16.9472 32.0077 18.9608L26.582 25.5886C24.829 27.6022 24.4952 29.6157 25.4968 31.5453L25.9142 32.3843C26.9993 34.4817 28.6688 35.5724 31.0895 35.5724H31.4234C38.8524 35.5724 42.5252 37.7537 42.5252 42.2003C42.5252 45.5562 39.2698 48.157 34.011 48.157C31.3399 48.157 28.5018 47.318 25.4968 45.6401C22.8257 43.9621 20.7389 44.3816 19.2364 46.8146L16.9826 50.5061C15.3966 53.1069 15.7305 55.2882 17.9843 56.8823Z" fill="#0078FA"/>
<path d="M95.1469 59.6509C101.157 56.3789 104.245 50.3383 105.831 43.0392C106.583 39.4317 107 35.3207 107 30.8742C107 26.4276 106.583 22.4005 105.831 18.793C104.245 11.4939 101.157 5.45331 95.1469 2.34912C92.2254 0.755075 88.636 0 84.5459 0C80.4557 0 76.8664 0.755075 73.8614 2.34912C67.9348 5.45331 64.8463 11.4939 63.2604 18.793C62.5091 22.4005 62.0917 26.4276 62.0917 30.8742C62.0917 35.3207 62.5091 39.4317 63.2604 43.0392C64.8463 50.3383 67.9348 56.3789 73.8614 59.6509C76.8664 61.2449 80.4557 62 84.5459 62C88.636 62 92.2254 61.2449 95.1469 59.6509ZM91.9749 30.8742C91.9749 42.7037 89.4708 48.5765 84.5459 48.5765C79.621 48.5765 77.1168 42.7037 77.1168 30.8742C77.1168 19.2125 79.621 13.4235 84.5459 13.4235C89.4708 13.4235 91.9749 19.2125 91.9749 30.8742Z" fill="#0078FA"/>
<path d="M199 55.7241C199 57.6276 199.719 59.1172 201.114 60.1931C202.552 61.269 204.243 61.8069 206.188 61.8069C211.474 61.8069 213.419 57.0483 213.377 57.0483H213.461L213.334 58.6207V60.2759C213.334 60.9793 213.673 61.3103 214.392 61.3103H215.068C215.745 61.3103 216.083 60.9793 216.083 60.2759V47.9862C216.083 42.8138 213.25 40 208.176 40C205.681 40 203.398 40.6207 201.41 41.8207C200.861 42.1517 200.734 42.6069 201.114 43.2276L201.368 43.6414C201.748 44.1793 202.214 44.2621 202.806 43.9724C204.455 43.0207 206.146 42.5241 207.964 42.5241C211.474 42.5241 213.208 44.3034 213.208 47.9034V48.5655H211.981C203.313 48.5655 199 50.9655 199 55.7241ZM201.96 55.4759C201.96 53.0759 203.694 52.0414 205.723 51.3379C206.949 50.8828 209.021 50.7586 210.079 50.7172C210.628 50.6759 211.305 50.6759 212.024 50.6759H213.208V51.669C213.208 53.6552 212.616 55.4345 211.389 57.0483C210.205 58.6621 208.641 59.4483 206.696 59.4483C203.694 59.4483 201.96 57.5862 201.96 55.4759Z" fill="#323232"/>
<path d="M227.58 60.5241C227.792 61.0621 228.172 61.3103 228.764 61.3103H230.16C230.752 61.3103 231.132 61.0621 231.301 60.5241L238.701 41.6966C238.997 40.9103 238.701 40.4966 237.856 40.4966H236.968C236.376 40.4966 235.995 40.7862 235.826 41.3241L230.244 55.7655C229.948 56.469 229.695 57.3379 229.483 58.2897H229.399L228.68 55.7655L223.056 41.3241C222.887 40.7862 222.506 40.4966 221.914 40.4966H220.984C220.138 40.4966 219.885 40.9103 220.181 41.6966L227.58 60.5241Z" fill="#323232"/>
<path d="M240.799 50.9241C240.799 54.1103 241.856 56.7172 243.97 58.7448C246.084 60.7724 248.748 61.8069 251.92 61.8069C254.499 61.8069 256.867 61.0207 259.024 59.4897C259.531 59.1172 259.616 58.6621 259.32 58.1241L258.981 57.6276C258.643 57.0897 258.178 57.0069 257.586 57.3793C255.937 58.6621 254.076 59.2828 252.004 59.2828C249.721 59.2828 247.776 58.5379 246.211 57.0483C244.647 55.5586 243.801 53.531 243.759 50.9655H259.066C259.7 50.9655 260.165 50.5517 260.165 49.931C260.165 43.931 256.867 40 251.285 40C248.326 40 245.831 40.9931 243.801 42.9793C241.814 44.9655 240.799 47.6138 240.799 50.9241ZM243.886 48.8552C244.562 44.7586 247.522 42.3172 251.201 42.3172C254.541 42.3172 257.078 44.6759 257.248 48.8552H243.886Z" fill="#323232"/>
<path d="M265.195 60.2759C265.195 60.9793 265.533 61.3103 266.252 61.3103H267.055C267.732 61.3103 268.07 60.9793 268.07 60.2759V52.4966C268.07 50.0552 268.662 47.9034 269.804 46C270.988 44.0966 272.637 43.1448 274.709 43.1448C275.512 43.1448 275.893 42.8138 275.893 42.1103V41.3655C275.893 40.7034 275.512 40.3724 274.793 40.3724C271.58 40.3724 269 42.8138 267.943 46H267.859L268.028 44.3448V41.531C268.028 40.8276 267.69 40.4966 267.013 40.4966H266.252C265.533 40.4966 265.195 40.8276 265.195 41.531V60.2759Z" fill="#323232"/>
<path d="M277.458 55.7241C277.458 57.6276 278.176 59.1172 279.572 60.1931C281.01 61.269 282.701 61.8069 284.646 61.8069C289.932 61.8069 291.877 57.0483 291.834 57.0483H291.919L291.792 58.6207V60.2759C291.792 60.9793 292.13 61.3103 292.849 61.3103H293.526C294.202 61.3103 294.541 60.9793 294.541 60.2759V47.9862C294.541 42.8138 291.708 40 286.633 40C284.139 40 281.855 40.6207 279.868 41.8207C279.318 42.1517 279.191 42.6069 279.572 43.2276L279.826 43.6414C280.206 44.1793 280.671 44.2621 281.263 43.9724C282.912 43.0207 284.604 42.5241 286.422 42.5241C289.932 42.5241 291.665 44.3034 291.665 47.9034V48.5655H290.439C281.771 48.5655 277.458 50.9655 277.458 55.7241ZM280.418 55.4759C280.418 53.0759 282.151 52.0414 284.181 51.3379C285.407 50.8828 287.479 50.7586 288.536 50.7172C289.086 50.6759 289.762 50.6759 290.481 50.6759H291.665V51.669C291.665 53.6552 291.073 55.4345 289.847 57.0483C288.663 58.6621 287.099 59.4483 285.153 59.4483C282.151 59.4483 280.418 57.5862 280.418 55.4759Z" fill="#323232"/>
<path d="M301.763 67.4345C301.467 68.0552 301.636 68.469 302.271 68.7586C304.131 69.5862 306.161 70 308.402 70C311.235 70 313.603 69.2552 315.548 67.7241C317.535 66.1931 318.508 63.9172 318.508 60.8138V41.531C318.508 40.8276 318.17 40.4966 317.451 40.4966H316.774C316.098 40.4966 315.76 40.7862 315.76 41.4069V43.1034C315.76 43.3931 315.802 43.6 315.844 43.8069H315.76L315.59 43.4345C314.956 42.4 313.222 40 308.825 40C305.907 40 303.624 40.9517 301.932 42.8552C300.283 44.7586 299.438 47.2828 299.438 50.3862C299.438 53.6138 300.283 56.2207 302.017 58.2069C303.751 60.1931 306.076 61.1862 308.909 61.1862C312.038 61.1862 314.28 59.9034 315.675 57.2966H315.76L315.633 58.7862V60.9379C315.633 65.2828 312.546 67.4759 308.317 67.4759C306.626 67.4759 304.977 67.1034 303.37 66.4C302.736 66.1931 302.313 66.3172 302.017 66.8552L301.763 67.4345ZM309.332 58.6621C305.104 58.6621 302.398 55.4759 302.398 50.3034C302.398 45.4621 304.808 42.5241 309.079 42.5241C313.011 42.5241 315.675 44.8414 315.675 50.5931C315.675 56.2207 313.053 58.6621 309.332 58.6621Z" fill="#323232"/>
<path d="M323.634 50.9241C323.634 54.1103 324.691 56.7172 326.805 58.7448C328.919 60.7724 331.583 61.8069 334.755 61.8069C337.334 61.8069 339.702 61.0207 341.858 59.4897C342.366 59.1172 342.45 58.6621 342.154 58.1241L341.816 57.6276C341.478 57.0897 341.013 57.0069 340.421 57.3793C338.772 58.6621 336.911 59.2828 334.839 59.2828C332.556 59.2828 330.611 58.5379 329.046 57.0483C327.482 55.5586 326.636 53.531 326.594 50.9655H341.901C342.535 50.9655 343 50.5517 343 49.931C343 43.931 339.702 40 334.12 40C331.16 40 328.666 40.9931 326.636 42.9793C324.649 44.9655 323.634 47.6138 323.634 50.9241ZM326.72 48.8552C327.397 44.7586 330.357 42.3172 334.036 42.3172C337.376 42.3172 339.913 44.6759 340.082 48.8552H326.72Z" fill="#323232"/>
<path d="M0 131.323C0 133.108 0.884561 134 2.65368 134H5.37055C7.13967 134 8.02423 133.108 8.02423 131.323V119.851C8.02423 118.767 7.96105 117.811 7.83468 117.046H7.96105L8.27696 117.556C9.09834 118.895 11.9416 122.018 17.2489 122.018C21.5454 122.018 25.0836 120.488 27.8637 117.365C30.6437 114.242 32.0337 110.099 32.0337 105C32.0337 99.9648 30.7069 95.822 28.1164 92.6989C25.5259 89.5758 22.0508 87.9824 17.6912 87.9824C13.142 87.9824 10.4252 89.9582 8.78242 91.7429C7.58195 93.0176 7.51877 93.4 7.32922 93.7187H7.20285L7.26603 92.444V90.978C7.26603 89.6396 6.38147 88.7473 4.67553 88.7473H2.65368C0.884561 88.7473 0 89.6396 0 91.4242V131.323ZM7.7715 105.191C7.7715 98.3714 11.3729 94.9297 15.9221 94.9297C20.6608 94.9297 23.8831 99.0088 23.8831 105.127C23.8831 111.31 20.4081 115.198 15.7957 115.198C13.3316 115.198 11.3729 114.242 9.91972 112.266C8.46651 110.29 7.7715 107.932 7.7715 105.191Z" fill="#323232"/>
<path d="M38.007 111.119C38.007 115.516 39.2706 118.576 41.3557 119.914C43.4407 121.189 45.273 121.571 47.8003 121.571C49.5695 121.571 50.454 120.679 50.454 118.831V116.664C50.454 115.262 49.8222 114.497 48.4953 114.369C46.7894 114.178 45.968 112.903 45.968 110.481V78.6769C45.968 76.8923 45.0835 76 43.3775 76H40.5975C38.8915 76 38.007 76.8923 38.007 78.6769V111.119Z" fill="#323232"/>
<path d="M53.2528 112.266C53.2528 115.134 54.2637 117.492 56.3488 119.341C58.4338 121.125 60.9611 122.018 63.9307 122.018C68.164 122.018 71.0072 119.787 72.5236 118.066C73.7241 116.6 73.8504 116.218 74.04 115.899H74.1664L74.04 117.301V118.576C74.04 120.36 74.9246 121.253 76.6305 121.253H78.7787C80.5478 121.253 81.4324 120.36 81.4324 118.576V100.921C81.4324 92.7626 76.4409 87.9824 68.1008 87.9824C64.4994 87.9824 61.0243 88.8747 57.5493 90.6593C56.096 91.4879 55.717 92.6352 56.5383 94.2286L57.1702 95.4396C57.8652 96.9055 59.0656 97.2242 60.7084 96.5231C62.983 95.3121 65.1944 94.6747 67.4058 94.6747C71.3863 94.6747 73.4082 96.5868 73.4082 100.411V101.176H72.0813C67.8481 101.176 64.1203 101.686 60.0134 103.152C55.9697 104.618 53.2528 107.741 53.2528 112.266ZM61.2139 111.565C61.2139 107.932 64.8785 106.084 72.1445 106.084H73.4713V107.295C73.4713 109.398 72.7763 111.374 71.3863 113.158C69.9963 114.943 68.2272 115.835 66.0789 115.835C63.0462 115.835 61.2139 113.859 61.2139 111.565Z" fill="#323232"/>
<path d="M86.8908 105C86.8908 109.844 88.4704 113.923 91.6927 117.174C94.915 120.424 99.1483 122.018 104.392 122.018C108.626 122.018 112.48 120.743 115.829 118.257C117.092 117.365 117.345 116.154 116.524 114.688L115.892 113.477C115.07 112.011 113.87 111.756 112.29 112.648C109.953 114.305 107.552 115.134 105.087 115.134C102.118 115.134 99.6537 114.178 97.8214 112.202C95.9891 110.226 95.0414 107.804 95.0414 104.936C95.0414 102.068 95.926 99.7099 97.7583 97.7978C99.5906 95.822 101.928 94.8659 104.835 94.8659C107.046 94.8659 109.131 95.5033 111.09 96.8418C112.669 97.6066 113.807 97.3516 114.628 96.1407L115.449 94.8659C116.397 93.3363 116.271 92.1253 114.944 91.233C111.848 89.0659 108.373 87.9824 104.392 87.9824C99.1483 87.9824 94.915 89.6396 91.6927 92.9538C88.4704 96.2044 86.8908 100.22 86.8908 105Z" fill="#323232"/>
<path d="M120.15 105C120.15 109.78 121.729 113.796 124.888 117.11C128.111 120.36 132.281 122.018 137.462 122.018C141.379 122.018 145.044 120.934 148.392 118.767C149.782 117.938 150.098 116.727 149.277 115.198L148.519 113.923C147.761 112.585 146.56 112.266 144.981 113.031C142.769 114.433 140.431 115.134 138.03 115.134C132.913 115.134 128.869 111.82 128.363 106.211H148.013C149.53 106.211 150.793 104.936 150.793 103.47C150.793 98.8813 149.53 95.1846 147.002 92.3165C144.475 89.4484 141 87.9824 136.514 87.9824C131.649 87.9824 127.732 89.5758 124.699 92.7626C121.666 95.8857 120.15 99.9648 120.15 105ZM128.553 101.303C129.311 96.9055 132.281 94.1011 136.325 94.1011C140.052 94.1011 142.769 96.9055 142.832 101.303H128.553Z" fill="#323232"/>
<path d="M156.6 118.576C156.6 120.36 157.484 121.253 159.19 121.253H161.97C163.676 121.253 164.561 120.36 164.561 118.576V106.657C164.561 103.662 165.256 100.985 166.709 98.7538C168.162 96.5231 170.247 95.3758 172.901 95.3758C176.376 95.3758 177.197 97.7341 177.197 101.877V118.576C177.197 120.36 178.082 121.253 179.851 121.253H182.631C184.337 121.253 185.222 120.36 185.222 118.576V106.657C185.222 103.598 185.917 100.985 187.37 98.7538C188.823 96.5231 190.845 95.3758 193.435 95.3758C196.91 95.3758 197.858 97.6066 197.858 101.877V118.576C197.858 120.36 198.743 121.253 200.512 121.253H203.229C204.998 121.253 205.882 120.36 205.882 118.576V100.347C205.882 92.1253 202.344 87.9824 195.331 87.9824C190.529 87.9824 186.169 91.0418 184.337 94.6747H184.211C182.884 90.2132 179.725 87.9824 174.796 87.9824C170.184 87.9824 166.014 91.233 164.245 94.8659H164.119L164.245 93.4V91.4242C164.245 89.6396 163.36 88.7473 161.654 88.7473H159.19C157.484 88.7473 156.6 89.6396 156.6 91.4242V118.576Z" fill="#323232"/>
<path d="M211.407 105C211.407 109.78 212.987 113.796 216.146 117.11C219.368 120.36 223.538 122.018 228.719 122.018C232.636 122.018 236.301 120.934 239.65 118.767C241.04 117.938 241.356 116.727 240.534 115.198L239.776 113.923C239.018 112.585 237.817 112.266 236.238 113.031C234.026 114.433 231.689 115.134 229.288 115.134C224.17 115.134 220.126 111.82 219.621 106.211H239.271C240.787 106.211 242.051 104.936 242.051 103.47C242.051 98.8813 240.787 95.1846 238.26 92.3165C235.732 89.4484 232.257 87.9824 227.771 87.9824C222.906 87.9824 218.989 89.5758 215.956 92.7626C212.923 95.8857 211.407 99.9648 211.407 105ZM219.81 101.303C220.569 96.9055 223.538 94.1011 227.582 94.1011C231.31 94.1011 234.027 96.9055 234.09 101.303H219.81Z" fill="#323232"/>
<path d="M247.857 118.576C247.857 120.36 248.742 121.253 250.448 121.253H253.228C254.934 121.253 255.818 120.36 255.818 118.576V106.02C255.818 103.024 256.64 100.475 258.346 98.4352C260.051 96.3956 262.326 95.3758 265.106 95.3758C268.897 95.3758 270.161 97.6703 270.161 102.004V118.576C270.161 120.36 271.045 121.253 272.814 121.253H275.531C277.3 121.253 278.185 120.36 278.185 118.576V100.347C278.185 92.1253 274.457 87.9824 266.938 87.9824C261.126 87.9824 257.271 91.2967 255.502 94.8659H255.376L255.502 93.4V91.4242C255.502 89.6396 254.618 88.7473 252.912 88.7473H250.448C248.742 88.7473 247.857 89.6396 247.857 91.4242V118.576Z" fill="#323232"/>
<path d="M287.141 109.653C287.141 113.668 288.405 116.664 290.932 118.64C293.459 120.615 296.366 121.571 299.714 121.571C301.926 121.571 303 120.679 303 118.895V116.919C303 115.134 302.305 114.497 300.346 114.305C296.871 113.923 295.165 111.884 295.165 108.251V95.6308H299.904C301.61 95.6308 302.495 94.7385 302.495 92.9538V91.8703C302.495 90.0857 301.61 89.1934 299.841 89.1934H295.165V82.5648C295.165 80.7802 294.281 79.8879 292.512 79.8879H289.984C288.215 79.8879 287.331 80.7802 287.331 82.5648V89.1934H285.498C283.729 89.1934 282.845 90.0857 282.845 91.8703V92.9538C282.845 94.7385 283.729 95.6308 285.435 95.6308H287.141V109.653Z" fill="#323232"/>
</svg>
