<svg width="197" height="54" viewBox="0 0 197 54" fill="none" xmlns="http://www.w3.org/2000/svg">
<path d="M22.0591 32.3291C23.3433 33.4945 25.0475 34.1913 26.9078 34.1913C30.9043 34.1913 34.1568 30.9476 34.1568 26.935C34.1568 22.9344 30.9163 19.6787 26.9078 19.6787C25.0355 19.6787 23.3193 20.3875 22.0351 21.5649C22.0111 21.5889 21.9751 21.6129 21.9511 21.6369C20.6669 22.8023 18.9507 23.5231 17.0784 23.5231C15.2061 23.5231 13.4899 22.8143 12.2057 21.6369C12.1817 21.6129 12.1457 21.5769 12.1217 21.5649C10.8375 20.3875 9.12128 19.6787 7.24902 19.6787C3.25246 19.6787 0 22.9344 0 26.935C0 30.9355 3.24046 34.1913 7.24902 34.1913C9.12128 34.1913 10.8135 33.4824 12.0977 32.3291C12.1337 32.2931 12.1817 32.2571 12.2177 32.209C13.5019 31.0437 15.2061 30.3469 17.0664 30.3469C18.9387 30.3469 20.6309 31.0557 21.9151 32.209C21.9751 32.245 22.0231 32.2931 22.0591 32.3291Z" fill="#00CBFF"/>
<path d="M26.9053 0C22.9087 0 19.6562 3.2437 19.6562 7.25627C19.6562 11.2688 22.8967 14.5125 26.9053 14.5125C33.7462 14.5125 39.315 20.0869 39.315 26.9347C39.315 33.7825 33.7462 39.3569 26.9053 39.3569C22.9087 39.3569 19.6562 42.6006 19.6562 46.6131C19.6562 50.6137 22.8967 53.8694 26.9053 53.8694C41.7633 53.8694 53.813 41.8077 53.813 26.9347C53.813 12.0618 41.7633 0 26.9053 0Z" fill="#0078FA"/>
<path d="M7.26073 14.5125C11.2643 14.5125 14.5097 11.2638 14.5097 7.25627C14.5097 3.24874 11.2643 0 7.26073 0C3.25721 0 0.0117188 3.24874 0.0117188 7.25627C0.0117188 11.2638 3.25721 14.5125 7.26073 14.5125Z" fill="#0078FA"/>
<path d="M7.26073 53.8695C11.2643 53.8695 14.5097 50.6207 14.5097 46.6132C14.5097 42.6057 11.2643 39.3569 7.26073 39.3569C3.25721 39.3569 0.0117188 42.6057 0.0117188 46.6132C0.0117188 50.6207 3.25721 53.8695 7.26073 53.8695Z" fill="#0078FA"/>
<path d="M90.122 20.1628C90.122 29.1041 83.9291 35.249 74.3037 35.249H62.998V5.07666H74.3037C83.9291 5.07666 90.122 11.1735 90.122 20.1628ZM73.8356 28.8881C79.3804 28.8881 82.6449 25.7076 82.6449 20.1628C82.6449 14.618 79.3804 11.3536 73.8356 11.3536H70.3551V28.8881H73.8356Z" fill="white"/>
<path d="M97.1309 5.07666H104.476V23.1273C104.476 26.6918 106.24 28.7561 109.721 28.7561C113.201 28.7561 115.049 26.6918 115.049 23.1273V5.07666H122.394V23.0793C122.394 31.4205 116.55 35.5371 109.589 35.5371C102.58 35.5371 97.1309 31.4085 97.1309 23.0793V5.07666Z" fill="white"/>
<path d="M144.479 4.72852C151.656 4.72852 157.069 8.7731 158.785 15.302H150.708C149.459 12.7217 147.179 11.4375 144.395 11.4375C139.882 11.4375 136.786 14.786 136.786 20.1147C136.786 25.4435 139.882 28.792 144.395 28.792C147.191 28.792 149.459 27.5078 150.708 24.9274H158.785C157.069 31.4564 151.656 35.4529 144.479 35.4529C135.585 35.4529 129.309 29.14 129.309 20.1147C129.309 11.0894 135.585 4.72852 144.479 4.72852Z" fill="white"/>
<path d="M180.579 35.5492C172.022 35.5492 165.061 29.1523 165.061 20.079C165.061 11.0177 172.022 4.65674 180.579 4.65674C189.172 4.65674 196.001 11.0177 196.001 20.079C196.001 29.1403 189.124 35.5492 180.579 35.5492ZM180.579 28.8402C185.391 28.8402 188.524 25.3597 188.524 20.079C188.524 14.7022 185.391 11.3177 180.579 11.3177C175.682 11.3177 172.586 14.7142 172.586 20.079C172.586 25.3597 175.67 28.8402 180.579 28.8402Z" fill="white"/>
<path d="M63.0098 41.9219H68.0145V42.882H66.1062V49.0989H64.93V42.882H63.0098V41.9219Z" fill="white"/>
<path d="M76.104 47.635H73.1035L72.5875 49.0992H71.3633L73.9317 41.9102H75.2998L77.8682 49.0992H76.632L76.104 47.635ZM74.6157 43.3384L73.4396 46.6748H75.7799L74.6157 43.3384Z" fill="white"/>
<path d="M82.7286 41.9219V48.1508H85.165V49.0989H81.5645V41.9219H82.7286Z" fill="white"/>
<path d="M92.691 42.8698H89.9066V44.9701H92.379V45.9302H89.9066V48.1266H92.691V49.0867H88.7305V41.9097H92.691V42.8698Z" fill="white"/>
<path d="M102.604 41.9097V49.0987H101.428L97.8871 43.7339V49.0867H96.7109V41.9097H97.8871L101.428 47.2624V41.9097H102.604Z" fill="white"/>
<path d="M106.359 41.9219H111.364V42.882H109.456V49.0989H108.28V42.882H106.359V41.9219Z" fill="white"/>
<path d="M122.767 49.1709C121.327 49.1709 120.223 48.3908 120.223 47.1187H121.483C121.531 47.7067 121.951 48.1868 122.767 48.1868C123.595 48.1868 124.063 47.7427 124.063 47.1307C124.063 45.3904 120.259 46.5186 120.259 43.8782C120.259 42.618 121.255 41.8379 122.731 41.8379C124.099 41.8379 125.071 42.558 125.179 43.7942H123.883C123.847 43.3141 123.415 42.87 122.671 42.846C121.987 42.822 121.459 43.1581 121.459 43.8422C121.459 45.4624 125.263 44.4543 125.263 47.0706C125.239 48.1388 124.363 49.1709 122.767 49.1709Z" fill="white"/>
<path d="M132.487 49.1709C130.458 49.1709 128.826 47.6587 128.826 45.4984C128.826 43.3501 130.47 41.8379 132.487 41.8379C134.527 41.8379 136.147 43.3501 136.147 45.4984C136.147 47.6467 134.527 49.1709 132.487 49.1709ZM132.487 48.1508C133.915 48.1508 134.947 47.1187 134.947 45.4984C134.947 43.8782 133.915 42.87 132.487 42.87C131.058 42.87 130.026 43.8782 130.026 45.4984C130.026 47.1187 131.058 48.1508 132.487 48.1508Z" fill="white"/>
<path d="M141.069 41.9219V48.1508H143.493V49.0989H139.893V41.9219H141.069Z" fill="white"/>
<path d="M147.045 41.9219H148.221V46.4945C148.221 47.6107 148.845 48.1388 149.841 48.1388C150.837 48.1388 151.474 47.6107 151.474 46.4945V41.9219H152.65V46.4705C152.65 48.2948 151.33 49.1589 149.829 49.1589C148.317 49.1589 147.045 48.2948 147.045 46.4705V41.9219Z" fill="white"/>
<path d="M156.383 41.9219H161.388V42.882H159.479V49.0989H158.303V42.882H156.383V41.9219Z" fill="white"/>
<path d="M165.156 41.9219H166.332V49.0989H165.156V41.9219Z" fill="white"/>
<path d="M173.739 49.1709C171.71 49.1709 170.078 47.6587 170.078 45.4984C170.078 43.3501 171.722 41.8379 173.739 41.8379C175.779 41.8379 177.399 43.3501 177.399 45.4984C177.399 47.6467 175.779 49.1709 173.739 49.1709ZM173.739 48.1508C175.167 48.1508 176.199 47.1187 176.199 45.4984C176.199 43.8782 175.167 42.87 173.739 42.87C172.31 42.87 171.278 43.8782 171.278 45.4984C171.278 47.1187 172.31 48.1508 173.739 48.1508Z" fill="white"/>
<path d="M187.035 41.9102V49.0992H185.859L182.319 43.7464V49.0992H181.143V41.9102H182.319L185.859 47.2629V41.9102H187.035Z" fill="white"/>
<path d="M193.529 49.1709C192.089 49.1709 190.984 48.3908 190.984 47.1187H192.245C192.293 47.7067 192.713 48.1868 193.529 48.1868C194.357 48.1868 194.825 47.7427 194.825 47.1307C194.825 45.3904 191.02 46.5186 191.02 43.8782C191.02 42.618 192.017 41.8379 193.493 41.8379C194.861 41.8379 195.833 42.558 195.941 43.7942H194.621C194.585 43.3141 194.153 42.87 193.409 42.846C192.725 42.822 192.197 43.1581 192.197 43.8422C192.197 45.4624 196.001 44.4543 196.001 47.0706C196.001 48.1388 195.125 49.1709 193.529 49.1709Z" fill="white"/>
</svg>
